<svg xmlns="http://www.w3.org/2000/svg" viewBox="0 0 200 52.01"><defs><style>.cls-1{fill:#f6c90e;}.cls-2{fill:#fff;}</style></defs><g id="Capa_2" data-name="Capa 2"><g id="Capa_1-2" data-name="Capa 1"><path class="cls-1" d="M11,32H2.64C.25,32-.5,30.91.32,28.63Q5,15.37,9.78,2.09C10.42.3,10.84,0,12.73,0H25.39c2.23,0,3,1.2,2.2,3.3Q24.47,11.13,21.34,19c-.12.29-.22.58-.38,1,.41,0,.74,0,1.06,0,2.44,0,4.88,0,7.31,0a2.13,2.13,0,0,1,1.79,3.76Q19.42,37.37,7.74,51a2.19,2.19,0,0,1-2.29.92A1.77,1.77,0,0,1,4,50.29a4.32,4.32,0,0,1,.37-1.71Q7.47,40.8,10.59,33C10.71,32.73,10.8,32.45,11,32Z"/><path class="cls-2" d="M56.26,37.57l.35,1.84h.21l.34-1.7,10-37H79.49L63.1,51.28H50.43L34.11.73H46.37Z"/><path class="cls-2" d="M125.08,30.55q0,9.35-5.92,15.4T103.69,52Q94.08,52,88.1,46t-6-15.4V21.46a21.05,21.05,0,0,1,6-15.38Q94,0,103.62,0T119.1,6.08a21,21,0,0,1,6,15.38Zm-11.7-9.16a14.63,14.63,0,0,0-2.56-8.89,9.29,9.29,0,0,0-14.47,0,14.75,14.75,0,0,0-2.52,8.91v9.16a14.75,14.75,0,0,0,2.55,9A8.51,8.51,0,0,0,103.69,43a8.32,8.32,0,0,0,7.15-3.47,14.81,14.81,0,0,0,2.54-9Z"/><path class="cls-2" d="M144,42.25h21.7v9H132.23V.73H144Z"/><path class="cls-2" d="M200,9.76H186.63V51.28H174.9V9.76H161.77v-9H200Z"/></g></g></svg>